<?xml version="1.0" encoding="UTF-8" standalone="no"?>
<svg
   xmlns:dc="http://purl.org/dc/elements/1.1/"
   xmlns:cc="http://creativecommons.org/ns#"
   xmlns:rdf="http://www.w3.org/1999/02/22-rdf-syntax-ns#"
   xmlns:svg="http://www.w3.org/2000/svg"
   xmlns="http://www.w3.org/2000/svg"
   viewBox="0 0 229.16 152"
   height="152"
   width="229.16"
   xml:space="preserve"
   id="svg2"
   version="1.1"><metadata
     id="metadata8"><rdf:RDF><cc:Work
         rdf:about=""><dc:format>image/svg+xml</dc:format><dc:type
           rdf:resource="http://purl.org/dc/dcmitype/StillImage" /></cc:Work></rdf:RDF></metadata><defs
     id="defs6"><clipPath
       id="clipPath20"
       clipPathUnits="userSpaceOnUse"><path
         id="path18"
         d="m 1031.24,438.301 c -3.45,17.242 -20.69,417.453 -20.69,417.453 h 62.09 l -41.4,-417.453" /></clipPath><linearGradient
       id="linearGradient32"
       spreadMethod="pad"
       gradientTransform="matrix(13.8006,-510.607,-510.607,-13.8006,1041.14,872.5)"
       gradientUnits="userSpaceOnUse"
       y2="0"
       x2="1"
       y1="0"
       x1="0"><stop
         id="stop22"
         offset="0"
         style="stop-opacity:1;stop-color:#ffffff" /><stop
         id="stop24"
         offset="0.050562"
         style="stop-opacity:1;stop-color:#ffffff" /><stop
         id="stop26"
         offset="0.483146"
         style="stop-opacity:1;stop-color:#f68712" /><stop
         id="stop28"
         offset="0.668539"
         style="stop-opacity:1;stop-color:#fdd95c" /><stop
         id="stop30"
         offset="1"
         style="stop-opacity:1;stop-color:#fdd95c" /></linearGradient><clipPath
       id="clipPath42"
       clipPathUnits="userSpaceOnUse"><path
         id="path40"
         d="m 1033.92,437.945 c 1.13,17.547 87.93,408.606 87.93,408.606 l 59.99,-16.047 -147.92,-392.559" /></clipPath><linearGradient
       id="linearGradient54"
       spreadMethod="pad"
       gradientTransform="matrix(-118.658,-496.802,-496.802,118.658,1155.73,854.819)"
       gradientUnits="userSpaceOnUse"
       y2="0"
       x2="1"
       y1="0"
       x1="0"><stop
         id="stop44"
         offset="0"
         style="stop-opacity:1;stop-color:#ffffff" /><stop
         id="stop46"
         offset="0.050562"
         style="stop-opacity:1;stop-color:#ffffff" /><stop
         id="stop48"
         offset="0.483146"
         style="stop-opacity:1;stop-color:#f68712" /><stop
         id="stop50"
         offset="0.668539"
         style="stop-opacity:1;stop-color:#fdd95c" /><stop
         id="stop52"
         offset="1"
         style="stop-opacity:1;stop-color:#fdd95c" /></linearGradient><clipPath
       id="clipPath64"
       clipPathUnits="userSpaceOnUse"><path
         id="path62"
         d="m 1036.41,436.914 c 5.63,16.664 190.56,371.977 190.56,371.977 l 53.8,-31.008 -244.36,-340.969" /></clipPath><linearGradient
       id="linearGradient76"
       spreadMethod="pad"
       gradientTransform="matrix(-243.081,-449.211,-449.211,243.081,1261.84,808.115)"
       gradientUnits="userSpaceOnUse"
       y2="0"
       x2="1"
       y1="0"
       x1="0"><stop
         id="stop66"
         offset="0"
         style="stop-opacity:1;stop-color:#ffffff" /><stop
         id="stop68"
         offset="0.050562"
         style="stop-opacity:1;stop-color:#ffffff" /><stop
         id="stop70"
         offset="0.483146"
         style="stop-opacity:1;stop-color:#f68712" /><stop
         id="stop72"
         offset="0.668539"
         style="stop-opacity:1;stop-color:#fdd95c" /><stop
         id="stop74"
         offset="1"
         style="stop-opacity:1;stop-color:#fdd95c" /></linearGradient><clipPath
       id="clipPath86"
       clipPathUnits="userSpaceOnUse"><path
         id="path84"
         d="m 1038.55,435.27 c 9.74,14.64 280.26,310.078 280.26,310.078 l 43.95,-43.879 -324.21,-266.199" /></clipPath><linearGradient
       id="linearGradient98"
       spreadMethod="pad"
       gradientTransform="matrix(-350.917,-371.148,-371.148,350.917,1352.29,735.581)"
       gradientUnits="userSpaceOnUse"
       y2="0"
       x2="1"
       y1="0"
       x1="0"><stop
         id="stop88"
         offset="0"
         style="stop-opacity:1;stop-color:#ffffff" /><stop
         id="stop90"
         offset="0.050562"
         style="stop-opacity:1;stop-color:#ffffff" /><stop
         id="stop92"
         offset="0.483146"
         style="stop-opacity:1;stop-color:#f68712" /><stop
         id="stop94"
         offset="0.668539"
         style="stop-opacity:1;stop-color:#fdd95c" /><stop
         id="stop96"
         offset="1"
         style="stop-opacity:1;stop-color:#fdd95c" /></linearGradient><clipPath
       id="clipPath108"
       clipPathUnits="userSpaceOnUse"><path
         id="path106"
         d="m 1040.2,433.137 c 13.21,11.625 350.89,227.082 350.89,227.082 l 31.12,-53.735 -382.01,-173.347" /></clipPath><linearGradient
       id="linearGradient120"
       spreadMethod="pad"
       gradientTransform="matrix(-434.944,-267.796,-267.796,434.944,1420.9,642.143)"
       gradientUnits="userSpaceOnUse"
       y2="0"
       x2="1"
       y1="0"
       x1="0"><stop
         id="stop110"
         offset="0"
         style="stop-opacity:1;stop-color:#ffffff" /><stop
         id="stop112"
         offset="0.050562"
         style="stop-opacity:1;stop-color:#ffffff" /><stop
         id="stop114"
         offset="0.483146"
         style="stop-opacity:1;stop-color:#f68712" /><stop
         id="stop116"
         offset="0.668539"
         style="stop-opacity:1;stop-color:#fdd95c" /><stop
         id="stop118"
         offset="1"
         style="stop-opacity:1;stop-color:#fdd95c" /></linearGradient><clipPath
       id="clipPath130"
       clipPathUnits="userSpaceOnUse"><path
         id="path128"
         d="m 1041.23,430.637 c 15.77,7.82 397.67,128.66 397.67,128.66 l 16.17,-59.965 -413.84,-68.695" /></clipPath><linearGradient
       id="linearGradient142"
       spreadMethod="pad"
       gradientTransform="matrix(-489.41,-146.239,-146.239,489.41,1463.04,534.116)"
       gradientUnits="userSpaceOnUse"
       y2="0"
       x2="1"
       y1="0"
       x1="0"><stop
         id="stop132"
         offset="0"
         style="stop-opacity:1;stop-color:#ffffff" /><stop
         id="stop134"
         offset="0.050562"
         style="stop-opacity:1;stop-color:#ffffff" /><stop
         id="stop136"
         offset="0.483146"
         style="stop-opacity:1;stop-color:#f68712" /><stop
         id="stop138"
         offset="0.668539"
         style="stop-opacity:1;stop-color:#fdd95c" /><stop
         id="stop140"
         offset="1"
         style="stop-opacity:1;stop-color:#fdd95c" /></linearGradient><clipPath
       id="clipPath152"
       clipPathUnits="userSpaceOnUse"><path
         id="path150"
         d="m 1041.59,427.965 c 17.25,3.48 417.42,21.469 417.42,21.469 l 0.11,-62.098 -417.53,40.629" /></clipPath><linearGradient
       id="linearGradient164"
       spreadMethod="pad"
       gradientTransform="matrix(-510.593,-14.7711,-14.7711,510.593,1475.82,418.867)"
       gradientUnits="userSpaceOnUse"
       y2="0"
       x2="1"
       y1="0"
       x1="0"><stop
         id="stop154"
         offset="0"
         style="stop-opacity:1;stop-color:#ffffff" /><stop
         id="stop156"
         offset="0.050562"
         style="stop-opacity:1;stop-color:#ffffff" /><stop
         id="stop158"
         offset="0.483146"
         style="stop-opacity:1;stop-color:#f68712" /><stop
         id="stop160"
         offset="0.668539"
         style="stop-opacity:1;stop-color:#fdd95c" /><stop
         id="stop162"
         offset="1"
         style="stop-opacity:1;stop-color:#fdd95c" /></linearGradient><clipPath
       id="clipPath174"
       clipPathUnits="userSpaceOnUse"><path
         id="path172"
         d="m 1041.24,425.289 c 17.56,-1.105 408.78,-87.152 408.78,-87.152 l -15.95,-60.028 -392.83,147.18" /></clipPath><linearGradient
       id="linearGradient186"
       spreadMethod="pad"
       gradientTransform="matrix(-497.044,117.735,117.735,497.044,1458.34,304.258)"
       gradientUnits="userSpaceOnUse"
       y2="0"
       x2="1"
       y1="0"
       x1="0"><stop
         id="stop176"
         offset="0"
         style="stop-opacity:1;stop-color:#ffffff" /><stop
         id="stop178"
         offset="0.050562"
         style="stop-opacity:1;stop-color:#ffffff" /><stop
         id="stop180"
         offset="0.483146"
         style="stop-opacity:1;stop-color:#f68712" /><stop
         id="stop182"
         offset="0.668539"
         style="stop-opacity:1;stop-color:#fdd95c" /><stop
         id="stop184"
         offset="1"
         style="stop-opacity:1;stop-color:#fdd95c" /></linearGradient><clipPath
       id="clipPath196"
       clipPathUnits="userSpaceOnUse"><path
         id="path194"
         d="m 1040.21,422.789 c 16.69,-5.594 372.35,-189.867 372.35,-189.867 l -30.91,-53.859 -341.44,243.726" /></clipPath><linearGradient
       id="linearGradient208"
       spreadMethod="pad"
       gradientTransform="matrix(-449.72,242.211,242.211,449.72,1411.86,198.037)"
       gradientUnits="userSpaceOnUse"
       y2="0"
       x2="1"
       y1="0"
       x1="0"><stop
         id="stop198"
         offset="0"
         style="stop-opacity:1;stop-color:#ffffff" /><stop
         id="stop200"
         offset="0.050562"
         style="stop-opacity:1;stop-color:#ffffff" /><stop
         id="stop202"
         offset="0.483146"
         style="stop-opacity:1;stop-color:#f68712" /><stop
         id="stop204"
         offset="0.668539"
         style="stop-opacity:1;stop-color:#fdd95c" /><stop
         id="stop206"
         offset="1"
         style="stop-opacity:1;stop-color:#fdd95c" /></linearGradient><clipPath
       id="clipPath218"
       clipPathUnits="userSpaceOnUse"><path
         id="path216"
         d="m 1038.58,420.641 c 14.67,-9.715 310.6,-279.664 310.6,-279.664 L 1305.4,96.9297 1038.58,420.641" /></clipPath><linearGradient
       id="linearGradient230"
       spreadMethod="pad"
       gradientTransform="matrix(-371.794,350.235,350.235,371.794,1339.48,107.46)"
       gradientUnits="userSpaceOnUse"
       y2="0"
       x2="1"
       y1="0"
       x1="0"><stop
         id="stop220"
         offset="0"
         style="stop-opacity:1;stop-color:#ffffff" /><stop
         id="stop222"
         offset="0.050562"
         style="stop-opacity:1;stop-color:#ffffff" /><stop
         id="stop224"
         offset="0.483146"
         style="stop-opacity:1;stop-color:#f68712" /><stop
         id="stop226"
         offset="0.668539"
         style="stop-opacity:1;stop-color:#fdd95c" /><stop
         id="stop228"
         offset="1"
         style="stop-opacity:1;stop-color:#fdd95c" /></linearGradient><clipPath
       id="clipPath240"
       clipPathUnits="userSpaceOnUse"><path
         id="path238"
         d="M 1036.44,419 C 1048.09,405.816 1264.19,68.5391 1264.19,68.5391 L 1210.49,37.3203 1036.44,419" /></clipPath><linearGradient
       id="linearGradient252"
       spreadMethod="pad"
       gradientTransform="matrix(-268.607,434.472,434.472,268.607,1246.16,38.67)"
       gradientUnits="userSpaceOnUse"
       y2="0"
       x2="1"
       y1="0"
       x1="0"><stop
         id="stop242"
         offset="0"
         style="stop-opacity:1;stop-color:#ffffff" /><stop
         id="stop244"
         offset="0.050562"
         style="stop-opacity:1;stop-color:#ffffff" /><stop
         id="stop246"
         offset="0.483146"
         style="stop-opacity:1;stop-color:#f68712" /><stop
         id="stop248"
         offset="0.668539"
         style="stop-opacity:1;stop-color:#fdd95c" /><stop
         id="stop250"
         offset="1"
         style="stop-opacity:1;stop-color:#fdd95c" /></linearGradient><clipPath
       id="clipPath262"
       clipPathUnits="userSpaceOnUse"><path
         id="path260"
         d="m 1033.95,417.953 c 7.84,-15.742 129.4,-397.4217 129.4,-397.4217 L 1103.41,4.23828 1033.95,417.953" /></clipPath><linearGradient
       id="linearGradient274"
       spreadMethod="pad"
       gradientTransform="matrix(-147.148,489.119,489.119,147.148,1138.21,-3.64999)"
       gradientUnits="userSpaceOnUse"
       y2="0"
       x2="1"
       y1="0"
       x1="0"><stop
         id="stop264"
         offset="0"
         style="stop-opacity:1;stop-color:#ffffff" /><stop
         id="stop266"
         offset="0.050562"
         style="stop-opacity:1;stop-color:#ffffff" /><stop
         id="stop268"
         offset="0.483146"
         style="stop-opacity:1;stop-color:#f68712" /><stop
         id="stop270"
         offset="0.668539"
         style="stop-opacity:1;stop-color:#fdd95c" /><stop
         id="stop272"
         offset="1"
         style="stop-opacity:1;stop-color:#fdd95c" /></linearGradient><clipPath
       id="clipPath284"
       clipPathUnits="userSpaceOnUse"><path
         id="path282"
         d="m 1031.28,417.59 c 3.51,-17.242 22.25,-417.359531 22.25,-417.359531 L 991.43,0 l 39.85,417.59" /></clipPath><linearGradient
       id="linearGradient296"
       spreadMethod="pad"
       gradientTransform="matrix(-15.6887,510.52,510.52,15.6887,1023,-16.64)"
       gradientUnits="userSpaceOnUse"
       y2="0"
       x2="1"
       y1="0"
       x1="0"><stop
         id="stop286"
         offset="0"
         style="stop-opacity:1;stop-color:#ffffff" /><stop
         id="stop288"
         offset="0.050562"
         style="stop-opacity:1;stop-color:#ffffff" /><stop
         id="stop290"
         offset="0.483146"
         style="stop-opacity:1;stop-color:#f68712" /><stop
         id="stop292"
         offset="0.668539"
         style="stop-opacity:1;stop-color:#fdd95c" /><stop
         id="stop294"
         offset="1"
         style="stop-opacity:1;stop-color:#fdd95c" /></linearGradient><clipPath
       id="clipPath306"
       clipPathUnits="userSpaceOnUse"><path
         id="path304"
         d="M 1028.6,417.93 C 1027.53,400.371 942.207,9.01172 942.207,9.01172 L 882.156,24.8281 1028.6,417.93" /></clipPath><linearGradient
       id="linearGradient318"
       spreadMethod="pad"
       gradientTransform="matrix(116.798,497.228,497.228,-116.798,908.354,0.609955)"
       gradientUnits="userSpaceOnUse"
       y2="0"
       x2="1"
       y1="0"
       x1="0"><stop
         id="stop308"
         offset="0"
         style="stop-opacity:1;stop-color:#ffffff" /><stop
         id="stop310"
         offset="0.050562"
         style="stop-opacity:1;stop-color:#ffffff" /><stop
         id="stop312"
         offset="0.483146"
         style="stop-opacity:1;stop-color:#f68712" /><stop
         id="stop314"
         offset="0.668539"
         style="stop-opacity:1;stop-color:#fdd95c" /><stop
         id="stop316"
         offset="1"
         style="stop-opacity:1;stop-color:#fdd95c" /></linearGradient><clipPath
       id="clipPath328"
       clipPathUnits="userSpaceOnUse"><path
         id="path326"
         d="M 1026.11,418.961 C 1020.54,402.27 836.93,46.2695 836.93,46.2695 L 783.012,77.0703 1026.11,418.961" /></clipPath><linearGradient
       id="linearGradient340"
       spreadMethod="pad"
       gradientTransform="matrix(241.376,450.147,450.147,-241.376,802.046,46.91)"
       gradientUnits="userSpaceOnUse"
       y2="0"
       x2="1"
       y1="0"
       x1="0"><stop
         id="stop330"
         offset="0"
         style="stop-opacity:1;stop-color:#ffffff" /><stop
         id="stop332"
         offset="0.050562"
         style="stop-opacity:1;stop-color:#ffffff" /><stop
         id="stop334"
         offset="0.483146"
         style="stop-opacity:1;stop-color:#f68712" /><stop
         id="stop336"
         offset="0.668539"
         style="stop-opacity:1;stop-color:#fdd95c" /><stop
         id="stop338"
         offset="1"
         style="stop-opacity:1;stop-color:#fdd95c" /></linearGradient><clipPath
       id="clipPath350"
       clipPathUnits="userSpaceOnUse"><path
         id="path348"
         d="M 1023.95,420.59 C 1014.26,405.914 744.863,109.469 744.863,109.469 l -44.121,43.695 323.208,267.426" /></clipPath><linearGradient
       id="linearGradient362"
       spreadMethod="pad"
       gradientTransform="matrix(349.553,372.44,372.44,-349.553,711.333,119.1)"
       gradientUnits="userSpaceOnUse"
       y2="0"
       x2="1"
       y1="0"
       x1="0"><stop
         id="stop352"
         offset="0"
         style="stop-opacity:1;stop-color:#ffffff" /><stop
         id="stop354"
         offset="0.050562"
         style="stop-opacity:1;stop-color:#ffffff" /><stop
         id="stop356"
         offset="0.483146"
         style="stop-opacity:1;stop-color:#f68712" /><stop
         id="stop358"
         offset="0.668539"
         style="stop-opacity:1;stop-color:#fdd95c" /><stop
         id="stop360"
         offset="1"
         style="stop-opacity:1;stop-color:#fdd95c" /></linearGradient><clipPath
       id="clipPath372"
       clipPathUnits="userSpaceOnUse"><path
         id="path370"
         d="M 1022.29,422.723 C 1009.14,411.051 672.266,194.332 672.266,194.332 l -31.321,53.621 381.345,174.77" /></clipPath><linearGradient
       id="linearGradient384"
       spreadMethod="pad"
       gradientTransform="matrix(433.94,269.41,269.41,-433.94,642.368,212.314)"
       gradientUnits="userSpaceOnUse"
       y2="0"
       x2="1"
       y1="0"
       x1="0"><stop
         id="stop374"
         offset="0"
         style="stop-opacity:1;stop-color:#ffffff" /><stop
         id="stop376"
         offset="0.050562"
         style="stop-opacity:1;stop-color:#ffffff" /><stop
         id="stop378"
         offset="0.483146"
         style="stop-opacity:1;stop-color:#f68712" /><stop
         id="stop380"
         offset="0.668539"
         style="stop-opacity:1;stop-color:#fdd95c" /><stop
         id="stop382"
         offset="1"
         style="stop-opacity:1;stop-color:#fdd95c" /></linearGradient><clipPath
       id="clipPath394"
       clipPathUnits="userSpaceOnUse"><path
         id="path392"
         d="M 1021.25,425.215 C 1005.53,417.328 624.086,295.082 624.086,295.082 l -16.41,59.895 413.574,70.238" /></clipPath><linearGradient
       id="linearGradient406"
       spreadMethod="pad"
       gradientTransform="matrix(488.839,148.06,148.06,-488.839,599.858,320.161)"
       gradientUnits="userSpaceOnUse"
       y2="0"
       x2="1"
       y1="0"
       x1="0"><stop
         id="stop396"
         offset="0"
         style="stop-opacity:1;stop-color:#ffffff" /><stop
         id="stop398"
         offset="0.050562"
         style="stop-opacity:1;stop-color:#ffffff" /><stop
         id="stop400"
         offset="0.483146"
         style="stop-opacity:1;stop-color:#f68712" /><stop
         id="stop402"
         offset="0.668539"
         style="stop-opacity:1;stop-color:#fdd95c" /><stop
         id="stop404"
         offset="1"
         style="stop-opacity:1;stop-color:#fdd95c" /></linearGradient><clipPath
       id="clipPath416"
       clipPathUnits="userSpaceOnUse"><path
         id="path414"
         d="m 1020.9,427.887 c -17.24,-3.555 -417.33,-23.039 -417.33,-23.039 l -0.355,62.109 417.685,-39.07" /></clipPath><linearGradient
       id="linearGradient428"
       spreadMethod="pad"
       gradientTransform="matrix(510.518,16.6596,16.6596,-510.518,586.641,435.351)"
       gradientUnits="userSpaceOnUse"
       y2="0"
       x2="1"
       y1="0"
       x1="0"><stop
         id="stop418"
         offset="0"
         style="stop-opacity:1;stop-color:#ffffff" /><stop
         id="stop420"
         offset="0.050562"
         style="stop-opacity:1;stop-color:#ffffff" /><stop
         id="stop422"
         offset="0.483146"
         style="stop-opacity:1;stop-color:#f68712" /><stop
         id="stop424"
         offset="0.668539"
         style="stop-opacity:1;stop-color:#fdd95c" /><stop
         id="stop426"
         offset="1"
         style="stop-opacity:1;stop-color:#fdd95c" /></linearGradient><clipPath
       id="clipPath438"
       clipPathUnits="userSpaceOnUse"><path
         id="path436"
         d="m 1021.23,430.57 c -17.56,1.024 -409.085,85.637 -409.085,85.637 l 15.707,60.07 393.378,-145.707" /></clipPath><linearGradient
       id="linearGradient450"
       spreadMethod="pad"
       gradientTransform="matrix(497.454,-115.884,-115.884,-497.454,603.696,550.049)"
       gradientUnits="userSpaceOnUse"
       y2="0"
       x2="1"
       y1="0"
       x1="0"><stop
         id="stop440"
         offset="0"
         style="stop-opacity:1;stop-color:#ffffff" /><stop
         id="stop442"
         offset="0.050562"
         style="stop-opacity:1;stop-color:#ffffff" /><stop
         id="stop444"
         offset="0.483146"
         style="stop-opacity:1;stop-color:#f68712" /><stop
         id="stop446"
         offset="0.668539"
         style="stop-opacity:1;stop-color:#fdd95c" /><stop
         id="stop448"
         offset="1"
         style="stop-opacity:1;stop-color:#fdd95c" /></linearGradient><clipPath
       id="clipPath460"
       clipPathUnits="userSpaceOnUse"><path
         id="path458"
         d="m 1022.24,433.074 c -16.69,5.535 -373.041,188.477 -373.041,188.477 l 30.707,53.972 342.334,-242.449" /></clipPath><linearGradient
       id="linearGradient472"
       spreadMethod="pad"
       gradientTransform="matrix(450.584,-240.547,-240.547,-450.584,649.771,656.426)"
       gradientUnits="userSpaceOnUse"
       y2="0"
       x2="1"
       y1="0"
       x1="0"><stop
         id="stop462"
         offset="0"
         style="stop-opacity:1;stop-color:#ffffff" /><stop
         id="stop464"
         offset="0.050562"
         style="stop-opacity:1;stop-color:#ffffff" /><stop
         id="stop466"
         offset="0.483146"
         style="stop-opacity:1;stop-color:#f68712" /><stop
         id="stop468"
         offset="0.668539"
         style="stop-opacity:1;stop-color:#fdd95c" /><stop
         id="stop470"
         offset="1"
         style="stop-opacity:1;stop-color:#fdd95c" /></linearGradient><clipPath
       id="clipPath482"
       clipPathUnits="userSpaceOnUse"><path
         id="path480"
         d="m 1023.88,435.219 c -14.71,9.664 -311.638,278.515 -311.638,278.515 l 43.617,44.211 268.021,-322.726" /></clipPath><linearGradient
       id="linearGradient494"
       spreadMethod="pad"
       gradientTransform="matrix(373.085,-348.871,-348.871,-373.085,721.836,747.29)"
       gradientUnits="userSpaceOnUse"
       y2="0"
       x2="1"
       y1="0"
       x1="0"><stop
         id="stop484"
         offset="0"
         style="stop-opacity:1;stop-color:#ffffff" /><stop
         id="stop486"
         offset="0.050562"
         style="stop-opacity:1;stop-color:#ffffff" /><stop
         id="stop488"
         offset="0.483146"
         style="stop-opacity:1;stop-color:#f68712" /><stop
         id="stop490"
         offset="0.668539"
         style="stop-opacity:1;stop-color:#fdd95c" /><stop
         id="stop492"
         offset="1"
         style="stop-opacity:1;stop-color:#fdd95c" /></linearGradient><clipPath
       id="clipPath504"
       clipPathUnits="userSpaceOnUse"><path
         id="path502"
         d="M 1026,436.875 C 1014.3,450.012 796.969,786.488 796.969,786.488 L 850.52,817.906 1026,436.875" /></clipPath><linearGradient
       id="linearGradient516"
       spreadMethod="pad"
       gradientTransform="matrix(270.214,-433.458,-433.458,-270.214,814.873,816.411)"
       gradientUnits="userSpaceOnUse"
       y2="0"
       x2="1"
       y1="0"
       x1="0"><stop
         id="stop506"
         offset="0"
         style="stop-opacity:1;stop-color:#ffffff" /><stop
         id="stop508"
         offset="0.050562"
         style="stop-opacity:1;stop-color:#ffffff" /><stop
         id="stop510"
         offset="0.483146"
         style="stop-opacity:1;stop-color:#f68712" /><stop
         id="stop512"
         offset="0.668539"
         style="stop-opacity:1;stop-color:#fdd95c" /><stop
         id="stop514"
         offset="1"
         style="stop-opacity:1;stop-color:#fdd95c" /></linearGradient><clipPath
       id="clipPath526"
       clipPathUnits="userSpaceOnUse"><path
         id="path524"
         d="m 1028.5,437.93 c -7.92,15.707 -130.879,396.937 -130.879,396.937 l 59.863,16.504 71.016,-413.441" /></clipPath><linearGradient
       id="linearGradient538"
       spreadMethod="pad"
       gradientTransform="matrix(148.963,-488.575,-488.575,-148.963,922.666,859.155)"
       gradientUnits="userSpaceOnUse"
       y2="0"
       x2="1"
       y1="0"
       x1="0"><stop
         id="stop528"
         offset="0"
         style="stop-opacity:1;stop-color:#ffffff" /><stop
         id="stop530"
         offset="0.050562"
         style="stop-opacity:1;stop-color:#ffffff" /><stop
         id="stop532"
         offset="0.483146"
         style="stop-opacity:1;stop-color:#f68712" /><stop
         id="stop534"
         offset="0.668539"
         style="stop-opacity:1;stop-color:#fdd95c" /><stop
         id="stop536"
         offset="1"
         style="stop-opacity:1;stop-color:#fdd95c" /></linearGradient><clipPath
       id="clipPath548"
       clipPathUnits="userSpaceOnUse"><path
         id="path546"
         d="M 488.383,214.723 418.816,442.895 H 319.258 L 435.793,125.828 H 539.105 L 653.59,442.895 H 556.957 L 488.383,214.723" /></clipPath><linearGradient
       id="linearGradient558"
       spreadMethod="pad"
       gradientTransform="matrix(-8.2e-6,-186.91,-186.91,8.2e-6,486.426,350.566)"
       gradientUnits="userSpaceOnUse"
       y2="0"
       x2="1"
       y1="0"
       x1="0"><stop
         id="stop550"
         offset="0"
         style="stop-opacity:1;stop-color:#231f20" /><stop
         id="stop552"
         offset="0.455555"
         style="stop-opacity:1;stop-color:#231f20" /><stop
         id="stop554"
         offset="0.488889"
         style="stop-opacity:1;stop-color:#636061" /><stop
         id="stop556"
         offset="1"
         style="stop-opacity:1;stop-color:#231f20" /></linearGradient><clipPath
       id="clipPath568"
       clipPathUnits="userSpaceOnUse"><path
         id="path566"
         d="m 200.137,249.281 c 0,-17.609 -4.664,-31.195 -13.969,-40.785 -9.309,-9.59 -22.145,-14.387 -38.508,-14.387 -16.515,0 -29.43,4.871 -38.734,14.606 -9.3088,9.738 -13.9533,23.254 -13.9533,40.566 V 442.895 H 0 V 253.941 c 0,-15.578 2.92969,-33.445 8.82031,-53.613 3.64059,-12.547 10.39449,-24.723 20.26559,-36.543 9.875,-11.82 20.7618,-20.933 32.6563,-27.344 11.9023,-6.421 26.7148,-10.691 44.4338,-12.871 17.711,-2.14 34.054,-3.23 49.039,-3.23 25.898,0 48.098,3.531 66.586,10.59 13.297,5.039 26.004,13.797 38.117,26.265 12.113,12.461 21.004,27.02 26.668,43.668 5.672,16.641 8.512,34.336 8.512,53.078 V 442.895 H 200.137 V 249.281" /></clipPath><linearGradient
       id="linearGradient578"
       spreadMethod="pad"
       gradientTransform="matrix(-8.2e-6,-186.89,-186.89,8.2e-6,147.549,350.581)"
       gradientUnits="userSpaceOnUse"
       y2="0"
       x2="1"
       y1="0"
       x1="0"><stop
         id="stop570"
         offset="0"
         style="stop-opacity:1;stop-color:#231f20" /><stop
         id="stop572"
         offset="0.455555"
         style="stop-opacity:1;stop-color:#231f20" /><stop
         id="stop574"
         offset="0.488889"
         style="stop-opacity:1;stop-color:#636061" /><stop
         id="stop576"
         offset="1"
         style="stop-opacity:1;stop-color:#231f20" /></linearGradient><clipPath
       id="clipPath588"
       clipPathUnits="userSpaceOnUse"><path
         id="path586"
         d="m 887.078,312.031 c -18.074,9.258 -47.937,18.313 -89.578,27.157 -16.836,3.441 -27.52,7.238 -32.051,11.382 -4.679,4.004 -7.043,8.532 -7.09,13.606 -0.078,6.941 2.664,12.851 8.219,17.758 5.551,4.898 13.867,7.41 24.926,7.523 13.437,0.133 24.019,-3.008 31.723,-9.398 7.695,-6.403 12.812,-16.711 15.343,-30.934 l 89.41,6.309 c -4.265,32.75 -16.781,56.519 -37.558,71.343 -20.777,14.821 -50.82,22.032 -90.113,21.629 -32.024,-0.32 -57.196,-4.734 -75.504,-13.211 -18.305,-8.492 -31.973,-20.035 -40.989,-34.632 -9.011,-14.602 -13.425,-30.047 -13.257,-46.352 0.246,-24.836 9.406,-45.172 27.484,-61.004 17.934,-15.844 47.801,-28.398 89.602,-37.656 25.515,-5.528 41.773,-11.52 48.757,-17.949 6.973,-6.442 10.508,-13.786 10.59,-22.028 0.086,-8.679 -3.523,-16.347 -10.816,-22.992 -7.289,-6.664 -17.742,-10.055 -31.321,-10.195 -18.238,-0.184 -32.32,6.125 -42.261,18.922 -6.114,7.91 -10.235,19.472 -12.352,34.675 l -90.183,-6.789 c 2.972,-31.976 14.652,-58.25 35.039,-78.789 20.371,-20.554 56.75,-30.554 109.136,-30.027 29.813,0.312 54.496,5 74.008,14.062 19.516,9.079 34.653,22.254 45.406,39.532 10.739,17.281 16.016,36.093 15.805,56.453 -0.176,17.308 -4.433,32.918 -12.765,46.84 -8.333,13.906 -21.536,25.492 -39.61,34.765" /></clipPath><linearGradient
       id="linearGradient598"
       spreadMethod="pad"
       gradientTransform="matrix(-8.2e-6,-186.897,-186.897,8.2e-6,799.756,350.561)"
       gradientUnits="userSpaceOnUse"
       y2="0"
       x2="1"
       y1="0"
       x1="0"><stop
         id="stop590"
         offset="0"
         style="stop-opacity:1;stop-color:#231f20" /><stop
         id="stop592"
         offset="0.455555"
         style="stop-opacity:1;stop-color:#231f20" /><stop
         id="stop594"
         offset="0.488889"
         style="stop-opacity:1;stop-color:#636061" /><stop
         id="stop596"
         offset="1"
         style="stop-opacity:1;stop-color:#231f20" /></linearGradient><clipPath
       id="clipPath608"
       clipPathUnits="userSpaceOnUse"><path
         id="path606"
         d="m 1090.86,364.414 h 97.31 V 125.828 h 94.97 v 238.586 h 97.31 v 78.481 h -289.59 v -78.481" /></clipPath><linearGradient
       id="linearGradient618"
       spreadMethod="pad"
       gradientTransform="matrix(-8.2e-6,-186.91,-186.91,8.2e-6,1235.65,350.566)"
       gradientUnits="userSpaceOnUse"
       y2="0"
       x2="1"
       y1="0"
       x1="0"><stop
         id="stop610"
         offset="0"
         style="stop-opacity:1;stop-color:#231f20" /><stop
         id="stop612"
         offset="0.455555"
         style="stop-opacity:1;stop-color:#231f20" /><stop
         id="stop614"
         offset="0.488889"
         style="stop-opacity:1;stop-color:#636061" /><stop
         id="stop616"
         offset="1"
         style="stop-opacity:1;stop-color:#231f20" /></linearGradient><clipPath
       id="clipPath628"
       clipPathUnits="userSpaceOnUse"><path
         id="path626"
         d="m 979.348,125.828 h 85.543 v 229.953 h -85.543 z" /></clipPath><linearGradient
       id="linearGradient638"
       spreadMethod="pad"
       gradientTransform="matrix(-8.2e-6,-186.904,-186.904,8.2e-6,1022.12,350.561)"
       gradientUnits="userSpaceOnUse"
       y2="0"
       x2="1"
       y1="0"
       x1="0"><stop
         id="stop630"
         offset="0"
         style="stop-opacity:1;stop-color:#231f20" /><stop
         id="stop632"
         offset="0.455555"
         style="stop-opacity:1;stop-color:#231f20" /><stop
         id="stop634"
         offset="0.488889"
         style="stop-opacity:1;stop-color:#636061" /><stop
         id="stop636"
         offset="1"
         style="stop-opacity:1;stop-color:#231f20" /></linearGradient><clipPath
       id="clipPath648"
       clipPathUnits="userSpaceOnUse"><path
         id="path646"
         d="m 1613.6,442.895 -62.57,-106.094 -61.72,106.094 h -105.7 L 1503.68,258.621 V 125.828 h 94.96 v 132.793 l 120.08,184.274 H 1613.6" /></clipPath><linearGradient
       id="linearGradient658"
       spreadMethod="pad"
       gradientTransform="matrix(-8.2e-6,-186.91,-186.91,8.2e-6,1551.16,350.566)"
       gradientUnits="userSpaceOnUse"
       y2="0"
       x2="1"
       y1="0"
       x1="0"><stop
         id="stop650"
         offset="0"
         style="stop-opacity:1;stop-color:#231f20" /><stop
         id="stop652"
         offset="0.455555"
         style="stop-opacity:1;stop-color:#231f20" /><stop
         id="stop654"
         offset="0.488889"
         style="stop-opacity:1;stop-color:#636061" /><stop
         id="stop656"
         offset="1"
         style="stop-opacity:1;stop-color:#231f20" /></linearGradient><clipPath
       id="clipPath670"
       clipPathUnits="userSpaceOnUse"><path
         id="path668"
         d="m 907.656,596.246 -115.316,89.969 273.74,22.57 213.84,-164.109 -151.6,-17.961" /></clipPath><linearGradient
       id="linearGradient678"
       spreadMethod="pad"
       gradientTransform="matrix(-120.488,36.8596,36.8596,120.488,1097.87,617.544)"
       gradientUnits="userSpaceOnUse"
       y2="0"
       x2="1"
       y1="0"
       x1="0"><stop
         id="stop672"
         offset="0"
         style="stop-opacity:1;stop-color:#231f20" /><stop
         id="stop674"
         offset="0.572222"
         style="stop-opacity:1;stop-color:#828080" /><stop
         id="stop676"
         offset="1"
         style="stop-opacity:1;stop-color:#282425" /></linearGradient><clipPath
       id="clipPath688"
       clipPathUnits="userSpaceOnUse"><path
         id="path686"
         d="m 939.043,544.199 -53.668,18.289 24.176,67.496 c 0,0 85.738,31.426 238.949,-69.945 l -18.57,-68.906 -143.297,40.035" /></clipPath><linearGradient
       id="linearGradient696"
       spreadMethod="pad"
       gradientTransform="matrix(127.136,-33.7736,-33.7736,-127.136,961.88,587.08)"
       gradientUnits="userSpaceOnUse"
       y2="0"
       x2="1"
       y1="0"
       x1="0"><stop
         id="stop690"
         offset="0"
         style="stop-opacity:1;stop-color:#828080" /><stop
         id="stop692"
         offset="0.416667"
         style="stop-opacity:1;stop-color:#231f20" /><stop
         id="stop694"
         offset="1"
         style="stop-opacity:1;stop-color:#828080" /></linearGradient><clipPath
       id="clipPath708"
       clipPathUnits="userSpaceOnUse"><path
         id="path706"
         d="m 1066.07,429.32 c 0,-24.269 -19.68,-43.949 -43.95,-43.949 -24.276,0 -43.952,19.68 -43.952,43.949 0,24.278 19.676,43.95 43.952,43.95 24.27,0 43.95,-19.672 43.95,-43.95" /></clipPath><linearGradient
       id="linearGradient718"
       spreadMethod="pad"
       gradientTransform="matrix(-1.5e-6,-35.4326,-35.4326,1.5e-6,1022.12,452.973)"
       gradientUnits="userSpaceOnUse"
       y2="0"
       x2="1"
       y1="0"
       x1="0"><stop
         id="stop710"
         offset="0"
         style="stop-opacity:1;stop-color:#231f20" /><stop
         id="stop712"
         offset="0.455555"
         style="stop-opacity:1;stop-color:#231f20" /><stop
         id="stop714"
         offset="0.488889"
         style="stop-opacity:1;stop-color:#636061" /><stop
         id="stop716"
         offset="1"
         style="stop-opacity:1;stop-color:#231f20" /></linearGradient></defs><g
     transform="matrix(1.3333333,0,0,-1.3333333,0,152)"
     id="g10"><g
       transform="scale(0.1)"
       id="g12"><g
         id="g14"><g
           clip-path="url(#clipPath20)"
           id="g16"><path
             id="path34"
             style="fill:url(#linearGradient32);fill-opacity:1;fill-rule:nonzero;stroke:none"
             d="m 1031.24,438.301 c -3.45,17.242 -20.69,417.453 -20.69,417.453 h 62.09 l -41.4,-417.453" /></g></g><g
         id="g36"><g
           clip-path="url(#clipPath42)"
           id="g38"><path
             id="path56"
             style="fill:url(#linearGradient54);fill-opacity:1;fill-rule:nonzero;stroke:none"
             d="m 1033.92,437.945 c 1.13,17.547 87.93,408.606 87.93,408.606 l 59.99,-16.047 -147.92,-392.559" /></g></g><g
         id="g58"><g
           clip-path="url(#clipPath64)"
           id="g60"><path
             id="path78"
             style="fill:url(#linearGradient76);fill-opacity:1;fill-rule:nonzero;stroke:none"
             d="m 1036.41,436.914 c 5.63,16.664 190.56,371.977 190.56,371.977 l 53.8,-31.008 -244.36,-340.969" /></g></g><g
         id="g80"><g
           clip-path="url(#clipPath86)"
           id="g82"><path
             id="path100"
             style="fill:url(#linearGradient98);fill-opacity:1;fill-rule:nonzero;stroke:none"
             d="m 1038.55,435.27 c 9.74,14.64 280.26,310.078 280.26,310.078 l 43.95,-43.879 -324.21,-266.199" /></g></g><g
         id="g102"><g
           clip-path="url(#clipPath108)"
           id="g104"><path
             id="path122"
             style="fill:url(#linearGradient120);fill-opacity:1;fill-rule:nonzero;stroke:none"
             d="m 1040.2,433.137 c 13.21,11.625 350.89,227.082 350.89,227.082 l 31.12,-53.735 -382.01,-173.347" /></g></g><g
         id="g124"><g
           clip-path="url(#clipPath130)"
           id="g126"><path
             id="path144"
             style="fill:url(#linearGradient142);fill-opacity:1;fill-rule:nonzero;stroke:none"
             d="m 1041.23,430.637 c 15.77,7.82 397.67,128.66 397.67,128.66 l 16.17,-59.965 -413.84,-68.695" /></g></g><g
         id="g146"><g
           clip-path="url(#clipPath152)"
           id="g148"><path
             id="path166"
             style="fill:url(#linearGradient164);fill-opacity:1;fill-rule:nonzero;stroke:none"
             d="m 1041.59,427.965 c 17.25,3.48 417.42,21.469 417.42,21.469 l 0.11,-62.098 -417.53,40.629" /></g></g><g
         id="g168"><g
           clip-path="url(#clipPath174)"
           id="g170"><path
             id="path188"
             style="fill:url(#linearGradient186);fill-opacity:1;fill-rule:nonzero;stroke:none"
             d="m 1041.24,425.289 c 17.56,-1.105 408.78,-87.152 408.78,-87.152 l -15.95,-60.028 -392.83,147.18" /></g></g><g
         id="g190"><g
           clip-path="url(#clipPath196)"
           id="g192"><path
             id="path210"
             style="fill:url(#linearGradient208);fill-opacity:1;fill-rule:nonzero;stroke:none"
             d="m 1040.21,422.789 c 16.69,-5.594 372.35,-189.867 372.35,-189.867 l -30.91,-53.859 -341.44,243.726" /></g></g><g
         id="g212"><g
           clip-path="url(#clipPath218)"
           id="g214"><path
             id="path232"
             style="fill:url(#linearGradient230);fill-opacity:1;fill-rule:nonzero;stroke:none"
             d="m 1038.58,420.641 c 14.67,-9.715 310.6,-279.664 310.6,-279.664 L 1305.4,96.9297 1038.58,420.641" /></g></g><g
         id="g234"><g
           clip-path="url(#clipPath240)"
           id="g236"><path
             id="path254"
             style="fill:url(#linearGradient252);fill-opacity:1;fill-rule:nonzero;stroke:none"
             d="M 1036.44,419 C 1048.09,405.816 1264.19,68.5391 1264.19,68.5391 L 1210.49,37.3203 1036.44,419" /></g></g><g
         id="g256"><g
           clip-path="url(#clipPath262)"
           id="g258"><path
             id="path276"
             style="fill:url(#linearGradient274);fill-opacity:1;fill-rule:nonzero;stroke:none"
             d="m 1033.95,417.953 c 7.84,-15.742 129.4,-397.4217 129.4,-397.4217 L 1103.41,4.23828 1033.95,417.953" /></g></g><g
         id="g278"><g
           clip-path="url(#clipPath284)"
           id="g280"><path
             id="path298"
             style="fill:url(#linearGradient296);fill-opacity:1;fill-rule:nonzero;stroke:none"
             d="m 1031.28,417.59 c 3.51,-17.242 22.25,-417.359531 22.25,-417.359531 L 991.43,0 l 39.85,417.59" /></g></g><g
         id="g300"><g
           clip-path="url(#clipPath306)"
           id="g302"><path
             id="path320"
             style="fill:url(#linearGradient318);fill-opacity:1;fill-rule:nonzero;stroke:none"
             d="M 1028.6,417.93 C 1027.53,400.371 942.207,9.01172 942.207,9.01172 L 882.156,24.8281 1028.6,417.93" /></g></g><g
         id="g322"><g
           clip-path="url(#clipPath328)"
           id="g324"><path
             id="path342"
             style="fill:url(#linearGradient340);fill-opacity:1;fill-rule:nonzero;stroke:none"
             d="M 1026.11,418.961 C 1020.54,402.27 836.93,46.2695 836.93,46.2695 L 783.012,77.0703 1026.11,418.961" /></g></g><g
         id="g344"><g
           clip-path="url(#clipPath350)"
           id="g346"><path
             id="path364"
             style="fill:url(#linearGradient362);fill-opacity:1;fill-rule:nonzero;stroke:none"
             d="M 1023.95,420.59 C 1014.26,405.914 744.863,109.469 744.863,109.469 l -44.121,43.695 323.208,267.426" /></g></g><g
         id="g366"><g
           clip-path="url(#clipPath372)"
           id="g368"><path
             id="path386"
             style="fill:url(#linearGradient384);fill-opacity:1;fill-rule:nonzero;stroke:none"
             d="M 1022.29,422.723 C 1009.14,411.051 672.266,194.332 672.266,194.332 l -31.321,53.621 381.345,174.77" /></g></g><g
         id="g388"><g
           clip-path="url(#clipPath394)"
           id="g390"><path
             id="path408"
             style="fill:url(#linearGradient406);fill-opacity:1;fill-rule:nonzero;stroke:none"
             d="M 1021.25,425.215 C 1005.53,417.328 624.086,295.082 624.086,295.082 l -16.41,59.895 413.574,70.238" /></g></g><g
         id="g410"><g
           clip-path="url(#clipPath416)"
           id="g412"><path
             id="path430"
             style="fill:url(#linearGradient428);fill-opacity:1;fill-rule:nonzero;stroke:none"
             d="m 1020.9,427.887 c -17.24,-3.555 -417.33,-23.039 -417.33,-23.039 l -0.355,62.109 417.685,-39.07" /></g></g><g
         id="g432"><g
           clip-path="url(#clipPath438)"
           id="g434"><path
             id="path452"
             style="fill:url(#linearGradient450);fill-opacity:1;fill-rule:nonzero;stroke:none"
             d="m 1021.23,430.57 c -17.56,1.024 -409.085,85.637 -409.085,85.637 l 15.707,60.07 393.378,-145.707" /></g></g><g
         id="g454"><g
           clip-path="url(#clipPath460)"
           id="g456"><path
             id="path474"
             style="fill:url(#linearGradient472);fill-opacity:1;fill-rule:nonzero;stroke:none"
             d="m 1022.24,433.074 c -16.69,5.535 -373.041,188.477 -373.041,188.477 l 30.707,53.972 342.334,-242.449" /></g></g><g
         id="g476"><g
           clip-path="url(#clipPath482)"
           id="g478"><path
             id="path496"
             style="fill:url(#linearGradient494);fill-opacity:1;fill-rule:nonzero;stroke:none"
             d="m 1023.88,435.219 c -14.71,9.664 -311.638,278.515 -311.638,278.515 l 43.617,44.211 268.021,-322.726" /></g></g><g
         id="g498"><g
           clip-path="url(#clipPath504)"
           id="g500"><path
             id="path518"
             style="fill:url(#linearGradient516);fill-opacity:1;fill-rule:nonzero;stroke:none"
             d="M 1026,436.875 C 1014.3,450.012 796.969,786.488 796.969,786.488 L 850.52,817.906 1026,436.875" /></g></g><g
         id="g520"><g
           clip-path="url(#clipPath526)"
           id="g522"><path
             id="path540"
             style="fill:url(#linearGradient538);fill-opacity:1;fill-rule:nonzero;stroke:none"
             d="m 1028.5,437.93 c -7.92,15.707 -130.879,396.937 -130.879,396.937 l 59.863,16.504 71.016,-413.441" /></g></g><g
         id="g542"><g
           clip-path="url(#clipPath548)"
           id="g544"><path
             id="path560"
             style="fill:url(#linearGradient558);fill-opacity:1;fill-rule:nonzero;stroke:none"
             d="M 488.383,214.723 418.816,442.895 H 319.258 L 435.793,125.828 H 539.105 L 653.59,442.895 H 556.957 L 488.383,214.723" /></g></g><g
         id="g562"><g
           clip-path="url(#clipPath568)"
           id="g564"><path
             id="path580"
             style="fill:url(#linearGradient578);fill-opacity:1;fill-rule:nonzero;stroke:none"
             d="m 200.137,249.281 c 0,-17.609 -4.664,-31.195 -13.969,-40.785 -9.309,-9.59 -22.145,-14.387 -38.508,-14.387 -16.515,0 -29.43,4.871 -38.734,14.606 -9.3088,9.738 -13.9533,23.254 -13.9533,40.566 V 442.895 H 0 V 253.941 c 0,-15.578 2.92969,-33.445 8.82031,-53.613 3.64059,-12.547 10.39449,-24.723 20.26559,-36.543 9.875,-11.82 20.7618,-20.933 32.6563,-27.344 11.9023,-6.421 26.7148,-10.691 44.4338,-12.871 17.711,-2.14 34.054,-3.23 49.039,-3.23 25.898,0 48.098,3.531 66.586,10.59 13.297,5.039 26.004,13.797 38.117,26.265 12.113,12.461 21.004,27.02 26.668,43.668 5.672,16.641 8.512,34.336 8.512,53.078 V 442.895 H 200.137 V 249.281" /></g></g><g
         id="g582"><g
           clip-path="url(#clipPath588)"
           id="g584"><path
             id="path600"
             style="fill:url(#linearGradient598);fill-opacity:1;fill-rule:nonzero;stroke:none"
             d="m 887.078,312.031 c -18.074,9.258 -47.937,18.313 -89.578,27.157 -16.836,3.441 -27.52,7.238 -32.051,11.382 -4.679,4.004 -7.043,8.532 -7.09,13.606 -0.078,6.941 2.664,12.851 8.219,17.758 5.551,4.898 13.867,7.41 24.926,7.523 13.437,0.133 24.019,-3.008 31.723,-9.398 7.695,-6.403 12.812,-16.711 15.343,-30.934 l 89.41,6.309 c -4.265,32.75 -16.781,56.519 -37.558,71.343 -20.777,14.821 -50.82,22.032 -90.113,21.629 -32.024,-0.32 -57.196,-4.734 -75.504,-13.211 -18.305,-8.492 -31.973,-20.035 -40.989,-34.632 -9.011,-14.602 -13.425,-30.047 -13.257,-46.352 0.246,-24.836 9.406,-45.172 27.484,-61.004 17.934,-15.844 47.801,-28.398 89.602,-37.656 25.515,-5.528 41.773,-11.52 48.757,-17.949 6.973,-6.442 10.508,-13.786 10.59,-22.028 0.086,-8.679 -3.523,-16.347 -10.816,-22.992 -7.289,-6.664 -17.742,-10.055 -31.321,-10.195 -18.238,-0.184 -32.32,6.125 -42.261,18.922 -6.114,7.91 -10.235,19.472 -12.352,34.675 l -90.183,-6.789 c 2.972,-31.976 14.652,-58.25 35.039,-78.789 20.371,-20.554 56.75,-30.554 109.136,-30.027 29.813,0.312 54.496,5 74.008,14.062 19.516,9.079 34.653,22.254 45.406,39.532 10.739,17.281 16.016,36.093 15.805,56.453 -0.176,17.308 -4.433,32.918 -12.765,46.84 -8.333,13.906 -21.536,25.492 -39.61,34.765" /></g></g><g
         id="g602"><g
           clip-path="url(#clipPath608)"
           id="g604"><path
             id="path620"
             style="fill:url(#linearGradient618);fill-opacity:1;fill-rule:nonzero;stroke:none"
             d="m 1090.86,364.414 h 97.31 V 125.828 h 94.97 v 238.586 h 97.31 v 78.481 h -289.59 v -78.481" /></g></g><g
         id="g622"><g
           clip-path="url(#clipPath628)"
           id="g624"><path
             id="path640"
             style="fill:url(#linearGradient638);fill-opacity:1;fill-rule:nonzero;stroke:none"
             d="m 979.348,125.828 h 85.543 v 229.953 h -85.543 z" /></g></g><g
         id="g642"><g
           clip-path="url(#clipPath648)"
           id="g644"><path
             id="path660"
             style="fill:url(#linearGradient658);fill-opacity:1;fill-rule:nonzero;stroke:none"
             d="m 1613.6,442.895 -62.57,-106.094 -61.72,106.094 h -105.7 L 1503.68,258.621 V 125.828 h 94.96 v 132.793 l 120.08,184.274 H 1613.6" /></g></g><path
         id="path662"
         style="fill:#231f20;fill-opacity:1;fill-rule:nonzero;stroke:none"
         d="m 1129.93,491.133 c -1.61,-5.492 -57.63,6.031 -125.18,25.722 -23.227,6.786 -44.785,13.641 -63.02,19.946 -34.773,12.043 -57.406,22.066 -56.355,25.687 1.613,5.489 57.645,-6.023 125.185,-25.722 67.55,-19.7 120.98,-40.125 119.37,-45.633" /><g
         id="g664"><g
           clip-path="url(#clipPath670)"
           id="g666"><path
             id="path680"
             style="fill:url(#linearGradient678);fill-opacity:1;fill-rule:nonzero;stroke:none"
             d="m 907.656,596.246 -115.316,89.969 273.74,22.57 213.84,-164.109 -151.6,-17.961" /></g></g><g
         id="g682"><g
           clip-path="url(#clipPath688)"
           id="g684"><path
             id="path698"
             style="fill:url(#linearGradient696);fill-opacity:1;fill-rule:nonzero;stroke:none"
             d="m 939.043,544.199 -53.668,18.289 24.176,67.496 c 0,0 85.738,31.426 238.949,-69.945 l -18.57,-68.906 -143.297,40.035" /></g></g><path
         id="path700"
         style="fill:#ebb332;fill-opacity:1;fill-rule:nonzero;stroke:none"
         d="m 1200.13,604.898 c 0,0 34.6,2.957 47.22,-33.265 12.62,-36.207 -50.35,-120.891 -52.95,-163.352 -2.6,-42.441 -18.98,-73.734 -38.77,-88.754 l -26.47,15.575 c 0,0 29.09,58.632 54.62,73.839 0,0 23.25,60.395 35.83,91.582 12.55,31.196 21.96,70.946 10.07,82.153 -11.89,11.191 -29.55,22.222 -29.55,22.222" /><g
         id="g702"><g
           clip-path="url(#clipPath708)"
           id="g704"><path
             id="path720"
             style="fill:url(#linearGradient718);fill-opacity:1;fill-rule:nonzero;stroke:none"
             d="m 1066.07,429.32 c 0,-24.269 -19.68,-43.949 -43.95,-43.949 -24.276,0 -43.952,19.68 -43.952,43.949 0,24.278 19.676,43.95 43.952,43.95 24.27,0 43.95,-19.672 43.95,-43.95" /></g></g></g></g></svg>